<?xml version="1.0" encoding="UTF-8" standalone="no"?>
<svg
   width="179"
   height="133"
   version="1.1"
   id="svg4"
   sodipodi:docname="Logo_Pro_Evolution_Soccer.svg"
   inkscape:version="1.2.2 (b0a8486541, 2022-12-01)"
   xmlns:inkscape="http://www.inkscape.org/namespaces/inkscape"
   xmlns:sodipodi="http://sodipodi.sourceforge.net/DTD/sodipodi-0.dtd"
   xmlns="http://www.w3.org/2000/svg"
   xmlns:svg="http://www.w3.org/2000/svg">
  <defs
     id="defs8" />
  <sodipodi:namedview
     id="namedview6"
     pagecolor="#ffffff"
     bordercolor="#000000"
     borderopacity="0.25"
     inkscape:showpageshadow="2"
     inkscape:pageopacity="0.0"
     inkscape:pagecheckerboard="0"
     inkscape:deskcolor="#d1d1d1"
     showgrid="false"
     inkscape:zoom="2.8390603"
     inkscape:cx="74.144251"
     inkscape:cy="72.383105"
     inkscape:window-width="1366"
     inkscape:window-height="710"
     inkscape:window-x="0"
     inkscape:window-y="26"
     inkscape:window-maximized="1"
     inkscape:current-layer="svg4" />
  <path
     style="stroke-width:0;stroke-dasharray:none;fill:#0e0d11;fill-opacity:1"
     d="m 74.203,119.557 -4.459,13.375 h 39.637 l -4.549,-13.375 z"
     id="path299" />
  <path
     style="stroke-width:0;stroke-dasharray:none;fill:#0e0d11;fill-opacity:1"
     d="M 61.077,41.412 74.3,116.436 h 30.17 L 110.267,84.78 H 95.033 l -3.255,18.356 H 87.021 L 83.378,81.512 h 9.586 l 2.452,-14.12 H 80.85 l -2.305,-12.56 h 21.98 l -1.693,9.23 h 15.025 l 4.012,-22.65 z"
     id="path297" />
  <path
     style="stroke-width:0;stroke-dasharray:none;fill:#0e0d11;fill-opacity:1"
     d="m 123.585,29.85 -7.936,44.942 17.745,15.026 -3.79,7.356 h -7.445 l -2.452,14.267 h 19.973 l 12.484,-25.993 -20.286,-16.05 4.458,-25.682 h 18.95 l -9.898,20.063 12.394,9.81 21,-43.739 z"
     id="path295" />
  <path
     style="stroke-width:0;stroke-dasharray:none;fill:#0e0d11;fill-opacity:1"
     d="m 0.218,29.85 21,43.738 L 33.61,63.78 23.713,43.717 h 18.949 l 4.458,25.681 -20.286,16.05 12.484,25.994 H 59.292 L 56.84,97.175 H 49.394 L 45.604,89.819 63.35,74.793 55.414,29.85 Z"
     id="path293" />
  <path
     style="stroke-width:0;stroke-dasharray:none;fill:#0e0d11;fill-opacity:1"
     d="m 53.826,0.068 6.626,37.969 h 58.006 L 125.19,0.067 H 110.317 L 105.724,24.59 H 96.968 V 0.068 H 81.898 V 24.59 H 73.204 L 68.692,0.068 Z"
     id="path2" />
</svg>
