<?xml version="1.0" encoding="UTF-8" standalone="no"?>
<svg
   width="1366"
   height="768"
   viewBox="0 0 1366 768.00001"
   role="img"
   artist="Katerina Limpitsouni"
   source="https://undraw.co/"
   version="1.1"
   id="svg66"
   sodipodi:docname="not-found-image.svg"
   inkscape:version="1.2.2 (b0a8486541, 2022-12-01)"
   xmlns:inkscape="http://www.inkscape.org/namespaces/inkscape"
   xmlns:sodipodi="http://sodipodi.sourceforge.net/DTD/sodipodi-0.dtd"
   xmlns="http://www.w3.org/2000/svg"
   xmlns:svg="http://www.w3.org/2000/svg">
  <defs
     id="defs70" />
  <sodipodi:namedview
     id="namedview68"
     pagecolor="#ffffff"
     bordercolor="#000000"
     borderopacity="0.25"
     inkscape:showpageshadow="2"
     inkscape:pageopacity="0.0"
     inkscape:pagecheckerboard="0"
     inkscape:deskcolor="#d1d1d1"
     showgrid="false"
     inkscape:zoom="0.32912066"
     inkscape:cx="370.68472"
     inkscape:cy="566.66148"
     inkscape:window-width="1366"
     inkscape:window-height="710"
     inkscape:window-x="0"
     inkscape:window-y="26"
     inkscape:window-maximized="1"
     inkscape:current-layer="svg66" />
  <rect
     style="fill:#4b5563;fill-opacity:1;stroke-width:4.25348;stop-color:#000000"
     id="rect433"
     width="1366"
     height="768"
     x="0"
     y="0"
     ry="0" />
  <g
     id="g14617"
     transform="matrix(1.0960949,0,0,1.0960949,-70.60969,-79.858896)">
    <path
       d="M 866.2857,622.846 H 273.36268 c -0.74239,0.006 -1.48403,-0.0269 -2.21558,-0.0963 L 477.55896,344.59254 c 5.3397,-5.1708 17.31946,-6.99092 26.7576,-4.06565 2.58773,0.67094 5.09386,2.04395 7.42096,4.06565 l 262.21392,190.62549 9.01628,8.54535 z"
       fill="#e6e6e6"
       id="path42"
       style="fill:#1f2937;fill-opacity:1;stroke-width:2.07216"
       sodipodi:nodetypes="ccccccccc" />
    <circle
       style="fill:#1f2937;fill-opacity:1;stop-color:#000000"
       id="path9149"
       cx="818.70654"
       cy="284.19864"
       r="60.660786" />
    <path
       d="M 1103.934,622.8467 H 574.29932 l 102.63281,-88.34075 7.38588,-6.36386 133.73975,-115.12476 c 8.76789,-7.54526 29.8608,-8.01503 40.16948,-1.4231 q 1.03865,0.67442 1.92589,1.4231 z"
       fill="#e6e6e6"
       id="path44"
       style="fill:#1f2937;fill-opacity:1;stroke-width:2.2257" />
  </g>
</svg>
